<svg xmlns="http://www.w3.org/2000/svg" viewBox="0 0 208.8 63.04"><defs><style>.cls-1{fill:#00363d;}</style></defs><g id="Layer_2" data-name="Layer 2"><g id="Layer_1-2" data-name="Layer 1"><path class="cls-1" d="M3.23,12.49H14.11V38.77h3.32l0-1.63V12.49H49V25.9h2.63V36.71H34.92V23.22H31.65V49.58H0V15.72A3.23,3.23,0,0,1,3.23,12.49ZM.29,52.55H14.4V63H2.77A2.48,2.48,0,0,1,.29,60.56Zm17.64,0H32v8A2.49,2.49,0,0,1,29.55,63H17.93ZM37.17.08H49V10.57H34.63v-8A2.51,2.51,0,0,1,37.17.08ZM66.93,34.9v1.81H49.57V25.9h3V12.6h14.4V34.9ZM52.51,0H64.39a2.51,2.51,0,0,1,2.54,2.49v8H52.51Z"/><path class="cls-1" d="M70.31,25.57V15.08A2.48,2.48,0,0,1,72.8,12.6H84.57V25.76h3.67V12.57h13.9V25.76h3.38V12.6h11.63a2.48,2.48,0,0,1,2.48,2.48V36.71H66.68V25.76h3.63Z"/><path class="cls-1" d="M123.09,12.76h13.4l.71.11V45.72a4.13,4.13,0,0,1-4.12,4.13h-10Z"/><path class="cls-1" d="M140.48,12.6H172.4A1.58,1.58,0,0,1,174,14.18V26h4.85V36.71H140.34V26h19.35V23.28H140.48V12.6Z"/><path class="cls-1" d="M197.53,36.71H173V25.76h4V13.06l0-.22h30.25a1.58,1.58,0,0,1,1.58,1.58V36.71H197.53Zm-6.7-13.3V26.2h3.68V23.41Z"/></g></g></svg>